<?xml version="1.0" standalone="no"?>
<!DOCTYPE svg PUBLIC "-//W3C//DTD SVG 20010904//EN"
 "http://www.w3.org/TR/2001/REC-SVG-20010904/DTD/svg10.dtd">
<svg version="1.0" xmlns="http://www.w3.org/2000/svg"
 width="260.000000pt" height="260.000000pt" viewBox="0 0 260.000000 260.000000"
 preserveAspectRatio="xMidYMid meet">
<metadata>
Created by potrace 1.14, written by Peter Selinger 2001-2017
</metadata>
<g transform="translate(0.000000,260.000000) scale(0.100000,-0.100000)"
fill="#000000" stroke="none">
<path d="M344 2545 c-2 -5 -6 -343 -9 -750 -5 -921 -5 -788 1 -1275 l5 -416
129 -32 129 -32 713 1 713 1 120 32 120 31 2 258 c1 226 4 264 20 295 25 52
25 174 -1 224 -17 36 -18 79 -18 856 l0 818 -960 0 c-631 -1 -962 -4 -964 -11z"/>
</g>
</svg>
